<svg width="185" height="70" viewBox="0 0 185 70" fill="none" xmlns="http://www.w3.org/2000/svg">
<g id="Logo">
<g id="Group">
<g id="Group_2">
<g id="Group_3">
<path id="Vector" fill-rule="evenodd" clip-rule="evenodd" d="M20.5635 58.0238L38.0635 25.1591L27.9441 0.742676L20.5635 58.0238ZM126.863 10.1658L122.5 16.5252L126.863 22.8846L131.227 16.5252L126.863 10.1658Z" fill="#00FFFF"/>
</g>
</g>
<g id="Group_4">
<g id="Group_5">
<path id="Vector_2" d="M8.95906 29.8477L1.85693 36.4856H22.2813L8.95906 29.8477ZM24.6951 70.0002L32.54 39.6885L20.9816 60.6235L24.6951 70.0002ZM37.8317 60.9949C37.6461 61.0413 37.4604 61.0877 37.1819 61.0877C37.0426 61.0877 36.9034 61.0877 36.7641 61.0413C36.6713 60.9949 36.532 60.9485 36.4856 60.8556C36.3927 60.7628 36.3463 60.6235 36.2999 60.4843C36.2535 60.345 36.2535 60.1129 36.2535 59.8808V57.5599H38.1567V56.8172H36.2535V55.2853L35.3715 55.4246V59.8808C35.3715 60.2057 35.4179 60.5307 35.4644 60.7628C35.5108 60.9949 35.6036 61.227 35.7429 61.4126C35.8821 61.5983 36.0678 61.7376 36.2535 61.784C36.4856 61.8768 36.7641 61.9233 37.089 61.9233C37.3675 61.9233 37.6461 61.8768 37.8782 61.8304C38.1102 61.784 38.2495 61.6912 38.3423 61.6447L38.1567 60.902C38.1102 60.902 38.0174 60.9485 37.8317 60.9949ZM43.727 56.6315C43.4484 56.6315 43.1699 56.6779 42.8914 56.8172C42.6129 56.91 42.3808 57.0957 42.1487 57.3278C41.9166 57.5599 41.7774 57.8384 41.6381 58.1633C41.4988 58.4882 41.4524 58.8596 41.4524 59.3238C41.4524 59.6951 41.4988 60.0665 41.5917 60.345C41.6845 60.6699 41.8238 60.9485 42.0559 61.1805C42.2416 61.4126 42.5201 61.5983 42.845 61.7376C43.1699 61.8768 43.5413 61.9233 43.9591 61.9233C44.284 61.9233 44.6089 61.8768 44.8874 61.8304C45.166 61.784 45.3516 61.6912 45.4445 61.6447L45.3052 60.902C45.2124 60.9485 45.0267 60.9949 44.841 61.0413C44.6089 61.0877 44.3768 61.1341 44.0519 61.1341C43.4949 61.1341 43.0771 60.9949 42.7986 60.7164C42.5201 60.4378 42.3808 60.0665 42.3344 59.5559H45.7694C45.7694 59.5095 45.7694 59.463 45.7694 59.3702C45.7694 59.3238 45.7694 59.2774 45.7694 59.2309C45.7694 58.349 45.5837 57.7455 45.2124 57.3278C44.9339 56.8636 44.4232 56.6315 43.727 56.6315ZM42.4272 58.8132C42.4272 58.6275 42.4736 58.4882 42.5665 58.3026C42.6129 58.1169 42.7057 57.9776 42.7986 57.8384C42.8914 57.6991 43.0307 57.6063 43.2164 57.5134C43.3556 57.4206 43.5413 57.3742 43.7734 57.3742C44.1447 57.3742 44.4232 57.5134 44.6553 57.7455C44.841 58.024 44.9803 58.349 44.9803 58.7203H42.4272V58.8132ZM52.593 61.0413C52.4073 61.0877 52.1752 61.0877 51.9431 61.0877C51.6646 61.0877 51.3861 61.0413 51.2004 60.9485C51.0148 60.8556 50.8291 60.7164 50.6898 60.5771C50.5506 60.4378 50.4577 60.2057 50.4113 60.0201C50.3649 59.788 50.3185 59.5559 50.3185 59.2774C50.3185 58.6739 50.4577 58.2097 50.7362 57.8848C51.0148 57.5599 51.3861 57.4206 51.8967 57.4206C52.0824 57.4206 52.2681 57.4206 52.4537 57.467C52.6394 57.5134 52.7787 57.5599 52.9179 57.6063L53.1036 56.8636C52.9179 56.7707 52.6858 56.7243 52.4537 56.6779C52.2217 56.6315 51.9896 56.6315 51.7575 56.6315C51.3861 56.6315 51.0612 56.6779 50.7827 56.8172C50.5042 56.9564 50.2256 57.1421 50.04 57.3742C49.8543 57.6063 49.6686 57.8848 49.5758 58.2097C49.4829 58.5347 49.3901 58.906 49.3901 59.2774C49.3901 59.6487 49.4365 60.0201 49.5294 60.345C49.6222 60.6699 49.8079 60.9485 49.9935 61.1805C50.1792 61.4126 50.4577 61.5983 50.7827 61.7376C51.1076 61.8768 51.4325 61.9233 51.8503 61.9233C51.9896 61.9233 52.1288 61.9233 52.2681 61.8768C52.4073 61.8768 52.5466 61.8304 52.6394 61.8304C52.7787 61.8304 52.8715 61.784 52.9644 61.7376C53.0572 61.6912 53.15 61.6912 53.1965 61.6447L53.0572 60.902C52.9644 60.9485 52.7787 60.9949 52.593 61.0413ZM60.2986 57.3278C60.1593 57.1421 59.9272 56.9564 59.6487 56.8636C59.3702 56.7707 59.0453 56.6779 58.6739 56.6779C58.4882 56.6779 58.3026 56.6779 58.1169 56.7243C57.9312 56.7707 57.7455 56.8172 57.6063 56.8636V54.3105L56.7243 54.4498V61.784H57.6063V57.6063C57.6527 57.6063 57.6991 57.5599 57.7455 57.5599C57.8384 57.5599 57.8848 57.5134 57.9776 57.5134C58.0705 57.5134 58.1633 57.467 58.2561 57.467C58.349 57.467 58.4418 57.467 58.5347 57.467C58.7667 57.467 58.9524 57.5134 59.1381 57.5599C59.2774 57.6063 59.4166 57.6991 59.5095 57.8384C59.6023 57.9776 59.6951 58.1633 59.6951 58.349C59.7416 58.5811 59.7416 58.8132 59.7416 59.1381V61.7376H60.6235V58.906C60.6235 58.5811 60.5771 58.2561 60.5307 57.9776C60.5771 57.7455 60.4378 57.5134 60.2986 57.3278ZM68.3291 57.3278C68.1898 57.1421 67.9577 56.9564 67.6792 56.8636C67.4007 56.7707 67.0758 56.6779 66.7044 56.6779C66.2402 56.6779 65.8689 56.7243 65.5439 56.7707C65.219 56.8172 64.9405 56.8636 64.7084 56.9564V61.784H65.5904V57.5599C65.6368 57.5599 65.6832 57.5599 65.7296 57.5134C65.8225 57.5134 65.8689 57.467 65.9617 57.467C66.0546 57.467 66.1474 57.467 66.2402 57.4206C66.3331 57.4206 66.4259 57.4206 66.5187 57.4206C66.7508 57.4206 66.9365 57.467 67.1222 57.5134C67.2614 57.5599 67.4007 57.6527 67.4935 57.792C67.5864 57.9312 67.6792 58.1169 67.6792 58.3026C67.7256 58.5347 67.7256 58.7668 67.7256 59.0917V61.6912H68.6076V58.8596C68.6076 58.5347 68.5612 58.2097 68.5148 57.9312C68.6076 57.7455 68.5148 57.5134 68.3291 57.3278ZM76.5453 57.3742C76.3596 57.1421 76.0811 56.9564 75.8026 56.8636C75.524 56.7243 75.1991 56.6779 74.8742 56.6779C74.5492 56.6779 74.2243 56.7243 73.9458 56.8636C73.6673 57.0028 73.3888 57.1885 73.2031 57.3742C73.0174 57.6063 72.8317 57.8848 72.7389 58.2097C72.6461 58.5347 72.5532 58.906 72.5532 59.2774C72.5532 59.6951 72.5996 60.0201 72.7389 60.345C72.8317 60.6699 73.0174 60.9485 73.2031 61.1805C73.3888 61.4126 73.6673 61.5983 73.9458 61.6912C74.2243 61.8304 74.5492 61.8768 74.8742 61.8768C75.1991 61.8768 75.524 61.8304 75.8026 61.6912C76.0811 61.5519 76.3596 61.3662 76.5453 61.1805C76.7309 60.9485 76.9166 60.6699 77.0095 60.345C77.1023 60.0201 77.1951 59.6487 77.1951 59.2774C77.1951 58.906 77.1487 58.5347 77.0095 58.2097C76.9166 57.8848 76.7774 57.6063 76.5453 57.3742ZM75.8954 60.6235C75.6633 60.9485 75.2919 61.1341 74.8742 61.1341C74.4564 61.1341 74.0851 60.9485 73.853 60.6235C73.6209 60.2986 73.4816 59.8344 73.4816 59.2774C73.4816 58.7203 73.6209 58.2561 73.853 57.9312C74.0851 57.6063 74.4564 57.4206 74.8742 57.4206C75.2919 57.4206 75.6633 57.6063 75.8954 57.9312C76.1275 58.2561 76.2667 58.7203 76.2667 59.2774C76.2667 59.8344 76.1739 60.2986 75.8954 60.6235ZM82.0691 60.902C82.0227 60.8556 81.9763 60.7628 81.9299 60.6699C81.8835 60.5771 81.8835 60.4378 81.8835 60.2986V54.3105L81.0015 54.4498V60.4378C81.0015 60.902 81.0943 61.2734 81.3264 61.5055C81.5585 61.7376 81.9299 61.8304 82.4869 61.8768L82.6262 61.1341C82.4869 61.1341 82.3477 61.0877 82.2548 61.0413C82.2084 61.0413 82.1155 60.9949 82.0691 60.902ZM89.9604 57.3742C89.7747 57.1421 89.4962 56.9564 89.2177 56.8636C88.9392 56.7243 88.6142 56.6779 88.2893 56.6779C87.9644 56.6779 87.6394 56.7243 87.3609 56.8636C87.0824 57.0028 86.8039 57.1885 86.6182 57.3742C86.4325 57.6063 86.2469 57.8848 86.154 58.2097C86.0612 58.5347 85.9683 58.906 85.9683 59.2774C85.9683 59.6951 86.0148 60.0201 86.154 60.345C86.2469 60.6699 86.4325 60.9485 86.6182 61.1805C86.8039 61.4126 87.0824 61.5983 87.3609 61.6912C87.6394 61.8304 87.9644 61.8768 88.2893 61.8768C88.6142 61.8768 88.9392 61.8304 89.2177 61.6912C89.4962 61.5519 89.7747 61.3662 89.9604 61.1805C90.1461 60.9485 90.3317 60.6699 90.4246 60.345C90.5174 60.0201 90.6103 59.6487 90.6103 59.2774C90.6103 58.906 90.5638 58.5347 90.4246 58.2097C90.3317 57.8848 90.1461 57.6063 89.9604 57.3742ZM89.3105 60.6235C89.0784 60.9485 88.7071 61.1341 88.2893 61.1341C87.8715 61.1341 87.5002 60.9485 87.2681 60.6235C87.036 60.2986 86.8967 59.8344 86.8967 59.2774C86.8967 58.7203 87.036 58.2561 87.2681 57.9312C87.5002 57.6063 87.8715 57.4206 88.2893 57.4206C88.7071 57.4206 89.0784 57.6063 89.3105 57.9312C89.5426 58.2561 89.6819 58.7203 89.6819 59.2774C89.6819 59.8344 89.5426 60.2986 89.3105 60.6235ZM96.5519 56.6779C96.1805 56.6779 95.8556 56.7243 95.5307 56.8636C95.2522 57.0028 94.9736 57.1421 94.788 57.3742C94.6023 57.6063 94.4166 57.8384 94.3238 58.1633C94.2309 58.4882 94.1381 58.8132 94.1381 59.1845C94.1381 59.6023 94.1845 59.9736 94.3238 60.2522C94.4166 60.5307 94.6023 60.8092 94.788 60.9949C94.9736 61.1805 95.2057 61.3662 95.4843 61.4591C95.7628 61.5519 96.0413 61.5983 96.3198 61.5983C96.5983 61.5983 96.8768 61.5519 97.1089 61.4591C97.341 61.3662 97.4803 61.3198 97.5731 61.2734V61.5055C97.5731 61.9697 97.4339 62.2946 97.2018 62.5267C96.9697 62.7588 96.5983 62.8516 96.0413 62.8516C95.7628 62.8516 95.4843 62.8052 95.2057 62.7588C94.9272 62.7124 94.7416 62.6195 94.5559 62.5731L94.3702 63.3622C94.5559 63.4551 94.8344 63.5015 95.1129 63.5479C95.3914 63.5943 95.6699 63.6408 95.9949 63.6408C96.784 63.6408 97.3874 63.4551 97.8052 63.1301C98.223 62.8052 98.4087 62.2482 98.4087 61.4591V57.0028C98.1766 56.9564 97.9445 56.91 97.6195 56.8172C97.341 56.7243 96.9697 56.6779 96.5519 56.6779ZM97.5267 60.4843C97.4339 60.5771 97.2482 60.6699 97.0625 60.7164C96.8768 60.7628 96.6447 60.8092 96.4126 60.8092C96.227 60.8092 96.0877 60.7628 95.902 60.7164C95.7164 60.6699 95.5771 60.5307 95.4843 60.4378C95.345 60.2986 95.2522 60.1129 95.2057 59.9272C95.1129 59.7416 95.1129 59.463 95.1129 59.1845C95.1129 58.6739 95.2522 58.2561 95.4843 57.9312C95.7628 57.6063 96.1341 57.467 96.5983 57.467C96.8768 57.467 97.0625 57.467 97.2018 57.5134C97.341 57.5134 97.4803 57.5599 97.5731 57.6063V60.4843H97.5267ZM102.958 54.6819C102.818 54.6819 102.679 54.7283 102.54 54.8211C102.447 54.914 102.354 55.0532 102.354 55.2389C102.354 55.4246 102.401 55.5638 102.54 55.6567C102.633 55.7495 102.772 55.7959 102.958 55.7959C103.097 55.7959 103.236 55.7495 103.376 55.6567C103.468 55.5638 103.561 55.4246 103.561 55.2389C103.561 55.0532 103.515 54.914 103.376 54.8211C103.283 54.7747 103.143 54.6819 102.958 54.6819ZM102.54 61.784H103.422V56.7707H102.54V61.784ZM110.617 57.1885C110.478 57.0028 110.246 56.91 110.013 56.8172C109.781 56.7243 109.456 56.6779 109.085 56.6779C108.76 56.6779 108.482 56.7243 108.203 56.7707C107.925 56.8172 107.739 56.8636 107.646 56.91L107.739 57.6527C107.832 57.6063 108.017 57.5599 108.25 57.5134C108.482 57.467 108.714 57.467 109.039 57.467C109.271 57.467 109.456 57.5134 109.596 57.5599C109.735 57.6063 109.874 57.6991 109.921 57.8384C110.013 57.9312 110.06 58.0705 110.106 58.2097C110.153 58.349 110.153 58.4882 110.153 58.6275V58.8596C110.106 58.8596 110.06 58.8596 110.013 58.8132C109.967 58.8132 109.874 58.7668 109.781 58.7668C109.688 58.7668 109.596 58.7203 109.503 58.7203C109.41 58.7203 109.317 58.7203 109.224 58.7203C108.946 58.7203 108.667 58.7668 108.435 58.8132C108.157 58.8596 107.971 58.9524 107.739 59.0917C107.553 59.2309 107.414 59.3702 107.275 59.5559C107.182 59.7416 107.089 59.9736 107.089 60.2522C107.089 60.5307 107.135 60.8092 107.228 60.9949C107.321 61.1805 107.46 61.3662 107.646 61.5055C107.832 61.6447 108.017 61.7376 108.25 61.784C108.482 61.8304 108.76 61.8768 109.039 61.8768C109.224 61.8768 109.456 61.8768 109.642 61.8304C109.828 61.8304 110.013 61.784 110.199 61.784C110.385 61.784 110.524 61.7376 110.663 61.7376C110.803 61.7376 110.895 61.6912 110.988 61.6912V58.5811C110.988 58.3026 110.942 58.024 110.895 57.792C110.895 57.5599 110.803 57.3742 110.617 57.1885ZM110.199 61.0877C110.106 61.1341 109.967 61.1341 109.781 61.1341C109.596 61.1341 109.41 61.1341 109.224 61.1341C108.853 61.1341 108.574 61.0877 108.389 60.9485C108.203 60.8092 108.064 60.6235 108.064 60.2986C108.064 60.1129 108.11 59.9736 108.203 59.8808C108.296 59.788 108.389 59.6951 108.528 59.6487C108.667 59.6023 108.807 59.5559 108.946 59.5095C109.085 59.5095 109.224 59.463 109.364 59.463C109.549 59.463 109.735 59.463 109.874 59.5095C110.013 59.5095 110.106 59.5559 110.199 59.6023V61.0877ZM123.104 57.0028C123.011 56.91 122.825 56.8636 122.593 56.7707C122.361 56.6779 122.129 56.6779 121.85 56.6779C121.479 56.6779 121.154 56.7243 120.876 56.8636C120.597 57.0028 120.365 57.1885 120.179 57.4206C119.994 57.6527 119.854 57.9312 119.761 58.2561C119.669 58.5811 119.622 58.9524 119.622 59.3238C119.622 59.7416 119.669 60.1129 119.808 60.4378C119.947 60.7628 120.086 61.0413 120.318 61.2734C120.551 61.5055 120.783 61.6912 121.108 61.784C121.433 61.9233 121.757 61.9697 122.129 61.9697C122.547 61.9697 122.918 61.9233 123.243 61.8768C123.568 61.8304 123.846 61.784 124.032 61.6912V54.3569L123.15 54.4962V57.0028H123.104ZM123.104 60.9949C123.011 61.0413 122.872 61.0413 122.732 61.0877C122.547 61.0877 122.361 61.1341 122.129 61.1341C121.665 61.1341 121.247 60.9949 120.968 60.6699C120.69 60.345 120.551 59.8808 120.551 59.3238C120.551 59.0453 120.597 58.8132 120.643 58.5811C120.69 58.349 120.783 58.1633 120.876 57.9776C120.968 57.792 121.154 57.6991 121.34 57.6063C121.525 57.5134 121.757 57.467 121.99 57.467C122.222 57.467 122.454 57.5134 122.686 57.6063C122.872 57.6991 123.057 57.792 123.15 57.8848V60.9949H123.104ZM129.092 60.902C129.045 60.8556 128.999 60.7628 128.952 60.6699C128.906 60.5771 128.906 60.4378 128.906 60.2986V54.3105L128.024 54.4498V60.4378C128.024 60.902 128.117 61.2734 128.349 61.5055C128.581 61.7376 128.952 61.8304 129.509 61.8768L129.649 61.1341C129.509 61.1341 129.37 61.0877 129.277 61.0413C129.231 61.0413 129.185 60.9949 129.092 60.902ZM136.379 57.1885C136.24 57.0028 136.008 56.91 135.776 56.8172C135.544 56.7243 135.219 56.6779 134.848 56.6779C134.523 56.6779 134.244 56.7243 133.966 56.7707C133.687 56.8172 133.501 56.8636 133.409 56.91L133.501 57.6527C133.594 57.6063 133.78 57.5599 134.012 57.5134C134.244 57.467 134.476 57.467 134.801 57.467C135.033 57.467 135.219 57.5134 135.358 57.5599C135.498 57.6063 135.637 57.6991 135.683 57.8384C135.776 57.9312 135.822 58.0705 135.869 58.2097C135.915 58.349 135.915 58.4882 135.915 58.6275V58.8596C135.869 58.8596 135.822 58.8596 135.776 58.8132C135.73 58.8132 135.637 58.7668 135.544 58.7668C135.451 58.7668 135.358 58.7203 135.265 58.7203C135.173 58.7203 135.08 58.7203 134.987 58.7203C134.708 58.7203 134.43 58.7668 134.198 58.8132C133.919 58.8596 133.734 58.9524 133.501 59.0917C133.316 59.2309 133.177 59.3702 133.037 59.5559C132.944 59.7416 132.852 59.9736 132.852 60.2522C132.852 60.5307 132.898 60.8092 132.991 60.9949C133.084 61.1805 133.223 61.3662 133.409 61.5055C133.594 61.6447 133.78 61.7376 134.012 61.784C134.244 61.8304 134.523 61.8768 134.801 61.8768C134.987 61.8768 135.219 61.8768 135.405 61.8304C135.59 61.8304 135.776 61.784 135.962 61.784C136.147 61.784 136.287 61.7376 136.426 61.7376C136.565 61.7376 136.658 61.6912 136.751 61.6912V58.5811C136.751 58.3026 136.704 58.024 136.658 57.792C136.612 57.5599 136.519 57.3742 136.379 57.1885ZM135.915 61.0877C135.822 61.1341 135.683 61.1341 135.498 61.1341C135.312 61.1341 135.126 61.1341 134.94 61.1341C134.569 61.1341 134.291 61.0877 134.105 60.9485C133.919 60.8092 133.78 60.6235 133.78 60.2986C133.78 60.1129 133.826 59.9736 133.919 59.8808C134.012 59.788 134.105 59.6951 134.244 59.6487C134.383 59.6023 134.523 59.5559 134.662 59.5095C134.801 59.5095 134.94 59.463 135.08 59.463C135.265 59.463 135.451 59.463 135.59 59.5095C135.73 59.5095 135.822 59.5559 135.915 59.6023V61.0877ZM149.655 60.9485C149.377 61.0413 149.005 61.0877 148.588 61.0877C148.216 61.0877 147.891 61.0413 147.613 60.902C147.334 60.7628 147.102 60.5771 146.917 60.345C146.731 60.1129 146.592 59.8344 146.499 59.5095C146.406 59.1845 146.36 58.8132 146.36 58.4418C146.36 58.024 146.406 57.6527 146.499 57.3278C146.592 57.0028 146.777 56.7243 146.963 56.4922C147.149 56.2601 147.381 56.0744 147.706 55.9816C147.984 55.8424 148.309 55.7959 148.681 55.7959C148.866 55.7959 149.005 55.7959 149.191 55.8424C149.377 55.8888 149.516 55.8888 149.655 55.9352C149.795 55.9816 149.934 56.028 150.027 56.0744C150.12 56.1209 150.212 56.1673 150.259 56.2137L150.537 55.4246C150.491 55.3782 150.444 55.3782 150.305 55.3317C150.212 55.2853 150.073 55.2389 149.887 55.1925C149.702 55.1461 149.516 55.0996 149.33 55.0532C149.098 55.0068 148.866 55.0068 148.588 55.0068C148.17 55.0068 147.752 55.0996 147.334 55.2389C146.963 55.3782 146.592 55.6103 146.313 55.9352C146.035 56.2137 145.803 56.5851 145.617 57.0492C145.431 57.467 145.385 57.9776 145.385 58.5347C145.385 59.0917 145.478 59.6023 145.617 60.0201C145.756 60.4378 145.988 60.8092 146.267 61.1341C146.545 61.4126 146.87 61.6447 147.242 61.8304C147.613 61.9697 148.031 62.0625 148.541 62.0625C148.82 62.0625 149.052 62.0625 149.284 62.0161C149.516 61.9697 149.702 61.9233 149.887 61.9233C150.073 61.8768 150.212 61.8304 150.305 61.784C150.398 61.7376 150.491 61.6912 150.537 61.6447L150.305 60.8556C150.166 60.8092 149.934 60.902 149.655 60.9485ZM154.112 61.784H154.994V56.7707H154.112V61.784ZM154.529 54.6819C154.39 54.6819 154.251 54.7283 154.112 54.8211C154.019 54.914 153.926 55.0532 153.926 55.2389C153.926 55.4246 153.972 55.5638 154.112 55.6567C154.204 55.7495 154.344 55.7959 154.529 55.7959C154.669 55.7959 154.808 55.7495 154.947 55.6567C155.04 55.5638 155.133 55.4246 155.133 55.2389C155.133 55.0532 155.086 54.914 154.947 54.8211C154.808 54.7747 154.715 54.6819 154.529 54.6819ZM161.074 56.6315C160.796 56.6315 160.517 56.6779 160.239 56.8172C159.96 56.91 159.728 57.0957 159.496 57.3278C159.264 57.5599 159.125 57.8384 158.986 58.1633C158.846 58.4882 158.8 58.8596 158.8 59.3238C158.8 59.6951 158.846 60.0665 158.939 60.345C159.032 60.6699 159.171 60.9485 159.403 61.1805C159.589 61.4126 159.868 61.5983 160.192 61.7376C160.517 61.8768 160.889 61.9233 161.307 61.9233C161.631 61.9233 161.956 61.8768 162.235 61.8304C162.513 61.784 162.699 61.6912 162.792 61.6447L162.653 60.902C162.56 60.9485 162.374 60.9949 162.188 61.0413C161.956 61.0877 161.724 61.1341 161.399 61.1341C160.842 61.1341 160.425 60.9949 160.146 60.7164C159.868 60.4378 159.728 60.0665 159.682 59.5559H163.117C163.117 59.5095 163.117 59.463 163.117 59.3702C163.117 59.3238 163.117 59.2774 163.117 59.2309C163.117 58.349 162.931 57.7455 162.56 57.3278C162.281 56.8636 161.724 56.6315 161.074 56.6315ZM159.728 58.8132C159.728 58.6275 159.775 58.4882 159.868 58.3026C159.914 58.1169 160.007 57.9776 160.1 57.8384C160.192 57.6991 160.332 57.6063 160.517 57.5134C160.657 57.4206 160.842 57.3742 161.074 57.3742C161.446 57.3742 161.724 57.5134 161.956 57.7455C162.142 58.024 162.281 58.349 162.281 58.7203H159.728V58.8132ZM170.822 57.3742C170.637 57.1421 170.405 56.9564 170.126 56.8172C169.848 56.6779 169.523 56.6315 169.151 56.6315C168.873 56.6315 168.594 56.6779 168.409 56.7243C168.177 56.8172 168.037 56.8636 167.898 56.9564V54.2641L167.016 54.4034V61.5519C167.202 61.5983 167.48 61.6447 167.805 61.7376C168.13 61.784 168.501 61.8304 168.919 61.8304C169.291 61.8304 169.662 61.784 169.94 61.6447C170.265 61.5055 170.498 61.3662 170.73 61.1341C170.962 60.902 171.101 60.6235 171.24 60.2986C171.379 59.9737 171.426 59.6023 171.426 59.1845C171.426 58.8132 171.379 58.4418 171.287 58.1169C171.147 57.8848 171.008 57.6063 170.822 57.3742ZM170.033 60.6235C169.755 60.9485 169.337 61.0877 168.873 61.0877C168.641 61.0877 168.409 61.0877 168.269 61.0413C168.084 61.0413 167.991 60.9949 167.898 60.9485V57.792C167.991 57.6991 168.177 57.6063 168.362 57.5134C168.548 57.4206 168.78 57.3742 169.059 57.3742C169.337 57.3742 169.523 57.4206 169.708 57.5134C169.894 57.6063 170.033 57.7455 170.173 57.8848C170.265 58.0705 170.358 58.2561 170.405 58.4882C170.451 58.7203 170.498 58.9524 170.498 59.2309C170.451 59.8808 170.312 60.2986 170.033 60.6235ZM175.65 54.6819C175.511 54.6819 175.372 54.7283 175.232 54.8211C175.139 54.914 175.047 55.0532 175.047 55.2389C175.047 55.4246 175.093 55.5638 175.232 55.6567C175.325 55.7495 175.464 55.7959 175.65 55.7959C175.789 55.7959 175.929 55.7495 176.068 55.6567C176.161 55.5638 176.253 55.4246 176.253 55.2389C176.253 55.0532 176.207 54.914 176.068 54.8211C175.929 54.7747 175.836 54.6819 175.65 54.6819ZM175.232 61.784H176.114V56.7707H175.232V61.784ZM183.727 57.2813C183.356 56.8636 182.845 56.6315 182.195 56.6315C181.917 56.6315 181.638 56.6779 181.36 56.8172C181.081 56.91 180.849 57.0957 180.617 57.3278C180.385 57.5599 180.246 57.8384 180.106 58.1633C179.967 58.4882 179.921 58.8596 179.921 59.3238C179.921 59.6951 179.967 60.0665 180.06 60.345C180.153 60.6699 180.292 60.9485 180.524 61.1805C180.71 61.4126 180.988 61.5983 181.313 61.7376C181.638 61.8768 182.009 61.9233 182.427 61.9233C182.752 61.9233 183.077 61.8768 183.356 61.8304C183.634 61.784 183.82 61.6912 183.913 61.6447L183.773 60.902C183.681 60.9485 183.495 60.9949 183.309 61.0413C183.077 61.0877 182.845 61.1341 182.52 61.1341C181.963 61.1341 181.545 60.9949 181.267 60.7164C180.988 60.4378 180.849 60.0665 180.803 59.5559H184.238C184.238 59.5095 184.238 59.463 184.238 59.3702C184.238 59.3238 184.238 59.2774 184.238 59.2309C184.284 58.349 184.098 57.6991 183.727 57.2813ZM180.849 58.8132C180.849 58.6275 180.895 58.4882 180.988 58.3026C181.035 58.1169 181.127 57.9776 181.22 57.8384C181.313 57.6991 181.452 57.6063 181.638 57.5134C181.777 57.4206 181.963 57.3742 182.195 57.3742C182.566 57.3742 182.845 57.5134 183.077 57.7455C183.263 58.024 183.402 58.349 183.402 58.7203H180.849V58.8132Z" fill="#256BBF"/>
</g>
</g>
<g id="Group_6">
<g id="Group_7">
<path id="Vector_3" fill-rule="evenodd" clip-rule="evenodd" d="M22.4204 34.8607L23.1631 29.9403L16.0146 31.4257L22.4204 34.8607ZM25.1127 12.1154L26.8302 0L0 36.3462L25.1127 12.1154ZM98.8263 26.3196C97.6194 25.0199 96.2268 23.9987 94.6021 23.3024C92.9775 22.6061 91.1671 22.2347 89.2639 22.2347C87.3143 22.2347 85.5504 22.6061 83.9257 23.3024C82.3011 23.9987 80.8621 25.0199 79.7016 26.3196C78.4947 27.6194 77.6127 29.1976 76.9629 31.0544C76.313 32.9111 75.9881 34.9072 75.9881 37.1353C75.9881 39.4098 76.313 41.4523 76.9629 43.2626C77.6127 45.0729 78.5411 46.6512 79.7016 47.9509C80.8621 49.2507 82.3011 50.2719 83.9257 50.9682C85.5504 51.6645 87.3607 52.0358 89.2639 52.0358C91.2135 52.0358 92.9775 51.6645 94.6021 50.9682C96.2268 50.2719 97.6658 49.2507 98.8263 47.9509C99.9867 46.6512 100.915 45.0729 101.565 43.2626C102.215 41.4523 102.54 39.4098 102.54 37.1353C102.54 34.9072 102.215 32.8647 101.565 31.0544C100.915 29.244 99.9867 27.6658 98.8263 26.3196ZM95.1127 44.7944C93.6737 46.6512 91.7241 47.626 89.2175 47.626C86.7573 47.626 84.7613 46.6976 83.3223 44.7944C81.8833 42.9377 81.187 40.3846 81.187 37.1817C81.187 33.9788 81.8833 31.4257 83.3223 29.569C84.7613 27.7122 86.7109 26.7374 89.2175 26.7374C91.6777 26.7374 93.6737 27.6658 95.1127 29.569C96.5517 31.4257 97.248 33.9788 97.248 37.1817C97.248 40.3382 96.5517 42.8912 95.1127 44.7944ZM71.7175 25.9947C70.9284 24.8342 69.8607 23.9058 68.4682 23.3024C67.0756 22.6525 65.3117 22.3276 63.13 22.3276C62.0159 22.3276 60.9483 22.4668 59.9735 22.6989C58.9987 22.931 58.1167 23.2095 57.2812 23.5345C56.492 23.8594 55.7958 24.1843 55.2387 24.5093C54.6817 24.8342 54.3103 25.1127 54.0318 25.252C53.1963 24.3236 52.1751 23.5809 50.9218 23.1167C49.6684 22.6061 48.1366 22.374 46.3263 22.374C43.8196 22.374 41.5915 22.5597 39.6883 22.8846C39.5491 22.931 39.4098 22.931 39.2706 22.9775L40.2454 25.2984L35.0928 34.9536V51.4324H40.1525V27.3873C40.2918 27.3408 40.5703 27.2944 41.0345 27.2016C41.4523 27.1088 41.9629 27.0623 42.4735 27.0159C42.9841 26.9695 43.5411 26.9231 44.1446 26.8767C44.748 26.8302 45.2586 26.8302 45.7692 26.8302C46.9761 26.8302 47.9509 27.0159 48.7401 27.3873C49.5292 27.7586 50.1326 28.3621 50.5968 29.1512C51.061 29.9403 51.3859 30.9615 51.5716 32.1684C51.7573 33.3753 51.8501 34.8143 51.8501 36.4854V51.3395H56.9098V35.4178C56.9098 34.1645 56.817 33.004 56.6777 31.8899C56.5385 30.7759 56.3064 29.7082 56.0279 28.7798C56.4456 28.4085 57.1883 27.9907 58.3024 27.5729C59.4164 27.1088 60.809 26.8767 62.5265 26.8767C63.7798 26.8767 64.7546 27.0623 65.5438 27.4337C66.3329 27.805 66.9363 28.4085 67.4005 29.1976C67.8647 29.9867 68.1432 31.008 68.3289 32.2149C68.5146 33.4218 68.561 34.8607 68.561 36.5318V51.3859H73.6207V35.4178C73.6207 33.5146 73.4814 31.7971 73.2029 30.1724C73.0173 28.5477 72.5066 27.1552 71.7175 25.9947ZM183.727 30.126C183.355 28.5013 182.752 27.1552 181.824 25.9947C180.942 24.8342 179.735 23.9523 178.249 23.3024C176.764 22.6525 174.861 22.3276 172.633 22.3276C170.126 22.3276 167.898 22.5133 165.948 22.8382C163.999 23.1631 162.467 23.4881 161.306 23.7666V51.3395H166.366V27.3873C166.552 27.3408 166.83 27.2944 167.248 27.2016C167.666 27.1088 168.13 27.0623 168.687 27.0159C169.198 26.9695 169.755 26.9231 170.358 26.8767C170.962 26.8302 171.519 26.8302 172.029 26.8302C173.375 26.8302 174.489 27.0159 175.418 27.3409C176.346 27.6658 177.042 28.2228 177.599 29.0119C178.157 29.7546 178.528 30.7759 178.76 32.0292C178.992 33.2825 179.131 34.7679 179.131 36.5318V51.3859H184.191V35.4178C184.284 33.4682 184.098 31.7042 183.727 30.126ZM119.854 46.9761C118.926 47.3011 117.719 47.4867 116.187 47.4867C115.305 47.4867 114.562 47.3939 113.912 47.1618C113.263 46.9297 112.706 46.5584 112.288 46.0477C111.87 45.5371 111.545 44.7944 111.313 43.866C111.081 42.9377 110.988 41.7772 110.988 40.3382V27.2016H121.664V22.931H110.895V14.1578L105.836 15.0398V40.3846C105.836 42.2878 105.975 43.9589 106.3 45.3979C106.625 46.8369 107.135 48.0438 107.924 49.0186C108.667 49.9934 109.688 50.7361 110.942 51.2467C112.195 51.7573 113.773 51.9894 115.723 51.9894C117.347 51.9894 118.833 51.8037 120.086 51.4324C121.34 51.061 122.268 50.7361 122.779 50.4576L121.804 46.2334C121.432 46.3727 120.783 46.6048 119.854 46.9761ZM155.086 26.3196C153.879 25.0199 152.487 23.9987 150.862 23.3024C149.237 22.6061 147.427 22.2347 145.524 22.2347C143.574 22.2347 141.81 22.6061 140.186 23.3024C138.561 23.9987 137.122 25.0199 135.962 26.3196C134.755 27.6194 133.873 29.1976 133.223 31.0544C132.573 32.9111 132.248 34.9072 132.248 37.1353C132.248 39.4098 132.573 41.4523 133.223 43.2626C133.873 45.0729 134.801 46.6512 135.962 47.9509C137.122 49.2507 138.561 50.2719 140.186 50.9682C141.81 51.6645 143.621 52.0358 145.524 52.0358C147.473 52.0358 149.237 51.6645 150.862 50.9682C152.487 50.2719 153.926 49.2507 155.086 47.9509C156.247 46.6512 157.175 45.0729 157.825 43.2626C158.475 41.4523 158.8 39.4098 158.8 37.1353C158.8 34.9072 158.475 32.8647 157.825 31.0544C157.175 29.244 156.247 27.6658 155.086 26.3196ZM151.373 44.7944C149.934 46.6512 147.984 47.626 145.477 47.626C143.017 47.626 141.021 46.6976 139.582 44.7944C138.143 42.9377 137.447 40.3846 137.447 37.1817C137.447 33.9788 138.143 31.4257 139.582 29.569C141.021 27.7122 142.971 26.7374 145.477 26.7374C147.938 26.7374 149.934 27.6658 151.373 29.569C152.812 31.4257 153.508 33.9788 153.508 37.1817C153.508 40.3382 152.812 42.8912 151.373 44.7944ZM127.049 25.9947L124.96 22.931H124.542V51.3395H129.602V22.931H129.092L127.049 25.9947Z" fill="white"/>
</g>
</g>
</g>
</g>
</svg>
